<svg id="Capa_1" enable-background="new 0 0 512 512" height="512" viewBox="0 0 512 512" width="512" xmlns="http://www.w3.org/2000/svg"><g><path d="m331 361h-15l-60 45-60-45h-15c-74.443 0-135 60.557-135 135v16h210 210v-16c0-74.443-60.557-135-135-135z" fill="#7ed8f6"/><path d="m466 496c0-74.443-60.557-135-135-135h-15l-60 45v106h210z" fill="#6aa9ff"/><path d="m211 481-60-75 45-45 34.527 13.159 25.473 61.841z" fill="#5a5a5a"/><path d="m301 481 60-75-45-45-60 37.5v37.5z" fill="#444"/><path d="m256 335.893h-60v25.107l60 75 60-75v-25.107z" fill="#fc9"/><path d="m316 335.893h-60v100.107l60-75z" fill="#ffb366"/><path d="m301 61c-16.534 0-32.093 5.532-45 15.253-2.783 2.097-5.599 4.146-8.101 6.647-17.398 17.4-45.598 38.1-81.599 38.1h-30.3v120c0 66.299 53.699 120 120 120s120-53.701 120-120v-75c0-41.4-33.6-105-75-105z" fill="#ffe6cc"/><path d="m376 241v-75c0-41.4-33.6-105-75-105-16.534 0-32.093 5.532-45 15.253v284.747c66.301 0 120-53.701 120-120z" fill="#fc9"/><g><path d="m196 181h30v30h-30z" fill="#5a5a5a"/></g><g><path d="m286 181h30v30h-30z" fill="#444"/></g><path d="m283.642 252.646c-4.717 11.147-15.572 18.354-27.642 18.354s-22.925-7.207-27.642-18.354l-27.627 11.719c9.434 22.25 31.128 36.635 55.269 36.635s45.835-14.385 55.269-36.636z" fill="#fc9"/><path d="m311.269 264.364-27.627-11.719c-4.717 11.148-15.572 18.355-27.642 18.355v30c24.141 0 45.835-14.385 55.269-36.636z" fill="#ffb366"/><path d="m301 30h-45-75c-8.401 0-15-6.601-15-15v-15h-30c-41.574 0-75 34.428-75 76 0 42.541 34.744 75 75 75h30.3c30.928 0 59.379-15.881 81.599-38.101 2.501-2.501 5.317-4.55 8.101-6.647 12.907-9.72 28.466-15.252 45-15.252 41.4 0 75 33.6 75 75v-60c0-41.4-33.6-76-75-76z" fill="#a34f3e"/><path d="m376 166v-60c0-41.4-33.6-76-75-76h-45v76.253c12.907-9.721 28.466-15.253 45-15.253 41.4 0 75 33.6 75 75z" fill="#873f2e"/></g></svg>